<svg version="1.0" xmlns="http://www.w3.org/2000/svg" width="22" height="22" viewBox="0 0 1159 1159" fill="#f6f6f6"><path d="M455.5 1.5C335.3 13 229.6 62.3 146 146 60.5 231.5 10.3 341.3.9 463.2c-1.7 22.6-.7 71.4 2 93.3 9.6 79.6 35.1 150.3 77.9 216 31 47.6 73.4 92.7 119.2 127 159.5 119.1 375.3 132.3 547 33.5 15.4-8.9 40-25.2 54-35.9l10.5-8L944 1021.5c93.1 93 133.8 133 137 134.6 6.3 3.3 18.7 3.4 24.5.2 4.9-2.7 48.6-46.5 51.1-51.3 2.9-5.4 2.6-18.1-.5-24-1.6-3.2-41.6-43.9-134.6-137L889.1 811.5l8-10.5c45.1-59.1 77.1-129.7 91.8-202.6 24-119.4 4.2-242.6-55.8-347.4-21.5-37.5-46-69.7-77.1-101.3-26.5-27-49.5-46.2-79.5-66.1C709.4 38.9 638.9 13 557 2.9 535.5.2 476.9-.6 455.5 1.5zm66.5 108c49 1.8 105.8 17.1 153.3 41.2 134.9 68.5 218.6 208.6 214.4 358.8-.9 31.7-4.1 55-11.8 85.7-17.1 68-52 129.1-102.8 179.8-31.2 31.2-64.1 55-102.7 74.3-40.5 20.3-86.5 33.6-133.9 38.9-18 2-64.3 1.7-82.5-.6-53-6.4-101.5-21.9-145.5-46.5-95.7-53.5-164.7-143.5-190.5-248.4-3.8-15.7-6.4-29.9-9.2-49.7-2.1-15.2-1.8-73.9.5-91 11.9-89 49.8-166.2 112.2-228.5 62.1-62.2 141.1-101 228-112 13.9-1.8 42.4-3.3 51.5-2.9 3 .2 11.6.6 19 .9z"/></svg>